<svg width="0" height="0" style="display:none">
  <defs>
    <!-- 厳選された植物 -->
    <symbol id="quality-plant" viewBox="0 0 24 24">
      <g fill="#2d5a27">
        <path d="M12 2l1.09 3.26L16 4.5l-1.9 2.5L16 9.5l-2.91-.74L12 12l-1.09-3.24L8 9.5l1.9-2.5L8 4.5l2.91.76L12 2z"/>
        <path d="M12 13c-2.7 0-5.3 1.1-7.14 2.93l-.86.87L12 22l8-5.2-.86-.87C17.3 14.1 14.7 13 12 13zm0 5.3l-4.5-2.9C8.7 14.8 10.3 14 12 14s3.3.8 4.5 1.4L12 18.3z"/>
      </g>
    </symbol>
    
    <!-- 育て方サポート -->
    <symbol id="support" viewBox="0 0 24 24">
      <g fill="#2d5a27">
        <path d="M12 2C6.48 2 2 6.48 2 12s4.48 10 10 10 10-4.48 10-10S17.52 2 12 2zm1 15h-2v-6h2v6zm0-8h-2V7h2v2z"/>
        <circle cx="12" cy="12" r="3" fill="none" stroke="#2d5a27" stroke-width="2"/>
        <path d="M16 12h3m-3 0l-2-2m2 2l-2 2M8 12H5m3 0l2-2m-2 2l2 2"/>
      </g>
    </symbol>
    
    <!-- 安心配送 -->
    <symbol id="delivery" viewBox="0 0 24 24">
      <g fill="#2d5a27">
        <path d="M19 7h-3V6a4 4 0 0 0-8 0v1H5a1 1 0 0 0-1 1v10a3 3 0 0 0 3 3h10a3 3 0 0 0 3-3V8a1 1 0 0 0-1-1zM10 6a2 2 0 0 1 4 0v1h-4V6zm8 12a1 1 0 0 1-1 1H7a1 1 0 0 1-1-1V9h2v1a1 1 0 0 0 2 0V9h4v1a1 1 0 0 0 2 0V9h2v9z"/>
        <path d="M12 13l-2-2h1V9h2v2h1l-2 2z"/>
      </g>
    </symbol>
    
    <!-- ハンバーガーメニュー -->
    <symbol id="hamburger" viewBox="0 0 24 24">
      <g fill="#2d5a27">
        <rect x="3" y="6" width="18" height="2" rx="1"/>
        <rect x="3" y="11" width="18" height="2" rx="1"/>
        <rect x="3" y="16" width="18" height="2" rx="1"/>
      </g>
    </symbol>
    
    <!-- 閉じるアイコン -->
    <symbol id="close" viewBox="0 0 24 24">
      <path fill="#2d5a27" d="M19 6.41L17.59 5 12 10.59 6.41 5 5 6.41 10.59 12 5 17.59 6.41 19 12 13.41 17.59 19 19 17.59 13.41 12z"/>
    </symbol>
    
    <!-- 矢印 -->
    <symbol id="arrow-right" viewBox="0 0 24 24">
      <path fill="currentColor" d="M12 4l-1.41 1.41L16.17 11H4v2h12.17l-5.58 5.59L12 20l8-8z"/>
    </symbol>
    
    <!-- 星 -->
    <symbol id="star" viewBox="0 0 24 24">
      <path fill="#FFD700" d="M12 2l3.09 6.26L22 9.27l-5 4.87 1.18 6.88L12 17.77l-6.18 3.25L7 14.14 2 9.27l6.91-1.01L12 2z"/>
    </symbol>
  </defs>
</svg>